<svg width="414" height="575" viewBox="0 0 414 575" fill="none" xmlns="http://www.w3.org/2000/svg">
<path fill-rule="evenodd" clip-rule="evenodd" d="M341.078 525.75C505.018 437.664 552.032 159.863 371.1 105.489C190.165 51.515 145.634 220.898 63.8964 220.869C-18.4323 220.898 -48.7621 133.734 -157.43 133.46C-266.408 133.734 -396.795 218.553 -353.622 401.98C-310.147 585.215 176.861 614.434 341.078 525.75Z" fill="#451CC0"/>
<mask id="mask0" mask-type="alpha" maskUnits="userSpaceOnUse" x="-363" y="94" width="851" height="481">
<path fill-rule="evenodd" clip-rule="evenodd" d="M341.078 525.75C505.018 437.664 552.032 159.863 371.1 105.489C190.165 51.515 145.634 220.898 63.8964 220.869C-18.4323 220.898 -48.7621 133.734 -157.43 133.46C-266.408 133.734 -396.795 218.553 -353.622 401.98C-310.147 585.215 176.861 614.434 341.078 525.75Z" fill="white"/>
</mask>
<g mask="url(#mask0)">
</g>
<path fill-rule="evenodd" clip-rule="evenodd" d="M-292 484.784C-230.844 429.717 -172.399 414.008 -116.664 437.658C2.81778 488.578 78.9107 576.064 242.824 495.559C310.741 462.003 370.133 449.287 421 457.412C399.105 484.812 372.27 508.225 341.247 524.858C206.37 597.539 -146.304 590.839 -292 484.784L-292 484.784Z" fill="#3A199B"/>
<path fill-rule="evenodd" clip-rule="evenodd" d="M95.0386 496.787C94.4309 445.315 104.944 371.664 120.789 383.209C148.549 402.918 153.41 458.048 117.313 530.486C111.955 541.306 107.663 545.074 104.331 543.738C102.507 544.683 99.3009 543.128 94.3669 538.201C57.7958 501.454 49.0925 466.105 60.9913 447.029C67.105 438.025 83.7322 467.885 95.0386 496.787Z" fill="#3E1BA8"/>
<path fill-rule="evenodd" clip-rule="evenodd" d="M284.607 547C77.0089 414.679 252.828 371.283 265.743 343.968C279.142 316.244 196.98 253.059 223.824 216.288C250.46 181.518 321.249 233.051 321.636 191.869C321.249 150.589 257.232 139.253 235.701 68.375C216.19 -2.5083 350.265 -37.8412 383.817 60.7003C416.469 158.571 363.086 200.443 404.078 205.823C445.356 212.986 491.983 192.234 497 237.219C501.071 282.978 383.367 310.134 383.817 352.341C383.367 393.12 533.62 491.736 284.607 547Z" fill="#7556D4"/>
<path fill-rule="evenodd" clip-rule="evenodd" d="M-4.91971 113.859C8.699 163.393 57.7138 184.691 77.5985 169.161C97.1901 152.992 86.6647 109.25 67.1971 85.5168C47.1884 62.1892 -18.9344 63.7234 -4.91971 113.859Z" fill="#451CC0"/>
<path d="M251.916 447.984C256.267 440.731 263.949 432.002 273.71 423.766C292.148 408.207 311.019 400.297 315.86 406.098C320.701 411.9 309.678 429.217 291.24 444.776C276.289 457.393 261.053 464.98 253.244 464.305C253.156 485.951 245.094 505.697 226.897 525L224.363 522.598C242.054 503.831 249.757 484.832 249.757 463.949C249.757 463.662 249.756 463.375 249.753 463.087C249.624 462.986 249.501 462.878 249.385 462.765C245.527 469.116 225.628 464.995 204.718 453.475C183.657 441.871 169.545 427.155 173.197 420.605C176.85 414.055 196.885 418.152 217.946 429.756C233.017 438.059 244.53 447.957 248.521 455.315C248.693 454.726 248.903 454.115 249.149 453.484C248.513 447.859 247.38 442.007 245.77 435.762C243.742 427.895 241.507 421.048 236.922 408.043C231.685 393.194 230 388.156 227.99 380.731C227.844 380.194 227.703 379.661 227.565 379.131C223.264 385.049 203.67 380.878 183.096 369.542C162.035 357.939 147.923 343.222 151.576 336.673C155.228 330.123 175.263 334.22 196.324 345.824C209.722 353.205 220.308 361.846 225.297 368.844C224.362 363.533 223.887 358.537 223.887 353.684C223.887 341.296 225.617 329.073 228.954 315.974C230.42 310.219 231.973 304.955 234.108 298.523C227.023 299.599 213.96 285.569 203.823 265.578C192.992 244.219 189.603 224.143 196.254 220.738C202.905 217.333 217.077 231.888 227.908 253.247C234.013 265.287 237.754 276.919 238.665 285.387C239.101 284.163 239.557 282.894 240.032 281.574C243.719 271.34 244.313 269.676 245.795 265.332C249.321 254.996 251.894 246.07 253.57 237.751C247.204 234.107 242.37 216.225 242.37 194.715C242.37 170.572 248.459 151 255.971 151C263.482 151 269.571 170.572 269.571 194.715C269.571 217.724 264.041 236.581 257.019 238.301C255.31 246.824 252.686 255.937 249.094 266.464C247.603 270.835 247.007 272.505 243.312 282.763C243.112 283.319 242.915 283.866 242.722 284.405C248.224 278.457 256.494 271.884 266.386 265.971C287.014 253.639 306.881 248.848 310.759 255.269C314.637 261.691 301.058 276.893 280.43 289.225C261.089 300.787 242.418 305.72 236.966 300.999C235.085 306.744 233.67 311.59 232.333 316.839C229.064 329.671 227.374 341.609 227.374 353.684C227.374 358.014 227.772 362.482 228.558 367.222C232.378 359.44 240.857 349.311 252.088 339.834C270.526 324.275 289.398 316.364 294.238 322.166C299.079 327.968 288.056 345.285 269.618 360.844C254.591 373.524 239.277 381.124 231.504 380.362C233.42 387.38 235.136 392.488 240.209 406.877C244.828 419.975 247.086 426.892 249.147 434.887C250.317 439.426 251.242 443.772 251.916 447.984Z" fill="#3E1BA8"/>
</svg>
