<svg width="50" height="61" viewBox="0 0 50 61" fill="none" xmlns="http://www.w3.org/2000/svg">
<path fill-rule="evenodd" clip-rule="evenodd" d="M45.2956 17.8028L45.1986 17.7469L33.5232 11.0269L27.6229 14.4974L27.454 14.5972L41.733 23.0085C42.0958 23.276 42.4618 24.2359 42.4618 24.686V43.0882C42.4618 43.5377 42.1008 44.4976 41.7399 44.7657L26.0302 53.9517C25.9376 53.9919 25.6392 54.0967 25.1213 54.0967C24.602 54.0967 24.2805 53.9919 24.1892 53.9517L8.19172 44.7594C7.8095 44.4976 7.07697 43.532 7.07697 43.0687V24.7061C7.07697 24.244 7.82764 23.276 8.21048 23.0154L21.9121 15.1101L23.6456 14.1666L24.4094 13.7503L25.3527 13.2374L31.5257 9.87679L31.6152 9.82782L34.4477 8.28593L38.811 5.91158C40.2723 5.12746 40.8253 3.30244 40.044 1.83463C39.2633 0.366202 37.4448 -0.188148 35.9816 0.596606L32.2814 2.6106L31.0503 3.28925L28.7182 4.57499L25.4259 6.3906L22.913 7.77616L22.3231 8.10073L19.2028 9.82154L18.3483 10.2924L12.9823 13.2512L6.91432 16.5472L4.65792 17.8028C2.48535 19.0647 0 22.156 0 24.6747V43.0982C0 45.617 2.47722 48.7095 4.64979 49.9701L20.9025 59.1775C21.9885 59.8072 23.578 60.1242 25.008 60.1242C26.4349 60.1242 27.9444 59.8072 29.031 59.1775L45.2643 49.9701C47.4381 48.7095 49.5388 45.617 49.5388 43.0982V24.6747C49.5388 22.156 47.4713 19.0647 45.2956 17.8028Z" fill="white"/>
</svg>
